<?xml version="1.0" standalone="no"?>
<!DOCTYPE svg PUBLIC "-//W3C//DTD SVG 20010904//EN"
 "http://www.w3.org/TR/2001/REC-SVG-20010904/DTD/svg10.dtd">
<svg version="1.0" xmlns="http://www.w3.org/2000/svg"
 width="1080.000000pt" height="1080.000000pt" viewBox="0 0 1080.000000 1080.000000"
 preserveAspectRatio="xMidYMid meet">
<metadata>
Created by potrace 1.14, written by Peter Selinger 2001-2017
</metadata>
<g transform="translate(0.000000,1080.000000) scale(0.100000,-0.100000)"
fill="#000000" stroke="none">
<path d="M2045 6699 c-159 -19 -339 -121 -435 -249 -145 -192 -166 -436 -53
-638 93 -168 272 -293 466 -325 85 -14 232 -6 315 19 59 17 172 70 172 81 0 3
-25 56 -56 118 l-56 112 -43 -24 c-88 -49 -234 -61 -336 -27 -117 38 -207 135
-235 254 -12 49 -6 129 12 179 81 226 348 304 596 173 11 -5 120 217 112 230
-9 14 -118 63 -164 74 -19 4 -37 8 -40 9 -80 19 -171 23 -255 14z"/>
<path d="M3385 6699 c-86 -11 -163 -50 -236 -119 -58 -54 -101 -178 -92 -262
14 -127 91 -211 280 -306 152 -76 199 -110 208 -152 11 -48 -19 -96 -71 -116
-88 -34 -214 -2 -343 85 l-45 30 -67 -112 -68 -112 22 -18 c53 -43 202 -111
268 -122 24 -4 53 -9 64 -12 40 -8 170 -3 224 8 204 42 311 168 313 369 2 140
-106 250 -352 357 -144 63 -187 109 -160 173 17 42 46 59 108 65 61 5 142 -14
212 -50 37 -19 51 -22 57 -12 4 6 28 53 54 104 54 106 54 104 -41 146 -110 48
-236 70 -335 56z"/>
<path d="M8565 6698 c-172 -22 -310 -161 -323 -323 -7 -96 17 -162 84 -234 46
-50 76 -70 187 -126 201 -101 225 -123 214 -194 -10 -62 -66 -91 -168 -87 -80
3 -163 35 -247 96 l-42 30 -14 -23 c-8 -12 -39 -63 -69 -113 l-55 -91 47 -30
c161 -108 333 -145 525 -113 78 13 175 59 223 107 93 93 125 253 73 370 -27
62 -122 152 -203 191 -34 16 -102 49 -150 72 -107 52 -147 88 -142 129 14 110
158 130 328 44 27 -13 50 -23 52 -21 1 2 26 50 55 107 58 117 60 106 -35 151
-110 51 -232 72 -340 58z"/>
<path d="M3961 6680 c-9 -6 -7 -853 2 -888 23 -89 63 -159 122 -210 85 -76
196 -106 360 -99 244 9 377 109 419 311 15 70 20 864 6 881 -5 6 -62 10 -135
9 l-128 0 -1 -400 -1 -399 -25 -49 c-40 -79 -126 -109 -232 -81 -62 16 -95 53
-115 130 -3 11 -6 192 -7 402 -1 210 -5 385 -9 389 -8 9 -244 12 -256 4z"/>
<path d="M5041 6680 c-4 -3 -6 -268 -6 -590 l0 -585 136 -3 135 -3 0 591 c0
324 -2 590 -6 591 -21 4 -253 3 -259 -1z"/>
<path d="M5403 6674 c-2 -5 -2 -59 -1 -120 l3 -109 138 0 137 0 1 -50 c0 -27
0 -240 0 -472 l1 -423 134 0 134 0 1 38 c0 20 1 233 2 472 l2 435 138 0 137 0
1 25 c5 115 2 203 -6 208 -18 11 -817 8 -822 -4z"/>
<path d="M6340 6682 c-7 -3 -10 -209 -10 -593 l0 -589 340 0 340 0 0 119 0
118 -205 -1 -205 -1 0 116 c0 103 2 117 18 121 9 2 97 3 195 3 l177 -1 0 118
0 118 -195 0 -196 0 3 118 3 117 190 1 c105 1 196 2 203 3 9 1 12 31 12 116 0
63 -3 115 -7 116 -26 3 -655 3 -663 1z"/>
<path d="M7170 6682 c-7 -3 -10 -209 -10 -593 l0 -589 135 0 135 0 2 231 3
230 55 -73 c30 -40 57 -75 60 -78 3 -3 59 -74 124 -157 l117 -153 170 0 c93 0
169 1 169 3 0 2 -90 111 -199 242 l-200 240 55 29 c75 40 137 112 163 187 30
88 24 214 -12 290 -48 99 -150 169 -272 186 -44 6 -479 10 -495 5z m437 -236
c16 -8 35 -22 44 -32 55 -64 39 -193 -29 -228 -34 -18 -116 -32 -159 -28 l-33
3 0 154 0 153 75 -4 c41 -2 87 -10 102 -18z"/>
<path d="M2521 6135 c-5 -5 -7 -55 -7 -110 l1 -100 230 0 230 0 0 110 1 110
-224 0 c-137 0 -227 -4 -231 -10z"/>
<path d="M2335 5223 c-40 -8 -70 -25 -89 -50 -27 -37 -32 -102 -11 -146 41
-86 174 -94 217 -14 13 24 20 86 10 88 -23 5 -98 6 -108 2 -22 -8 -8 -38 19
-41 31 -4 35 -27 8 -42 -28 -14 -46 -13 -70 8 -64 54 2 175 72 129 19 -12 26
-12 40 -2 9 7 17 17 17 22 0 25 -65 53 -105 46z"/>
<path d="M4595 5218 c-115 -32 -133 -194 -27 -246 127 -64 245 88 158 203 -29
37 -85 56 -131 43z m82 -77 c16 -21 16 -83 1 -104 -22 -28 -67 -29 -95 -1 -20
20 -23 31 -18 61 7 44 19 61 48 65 29 5 49 -2 64 -21z"/>
<path d="M5120 5219 c-89 -19 -91 -102 -4 -148 27 -15 44 -30 42 -39 -4 -21
-47 -25 -74 -7 -22 14 -25 14 -40 -10 -9 -14 -15 -28 -12 -30 13 -13 77 -32
98 -29 61 9 72 16 86 50 13 32 13 38 -1 60 -8 13 -33 33 -54 44 -46 23 -58 37
-42 53 7 7 20 7 45 0 31 -10 35 -8 45 13 5 13 7 26 2 28 -25 16 -60 22 -91 15z"/>
<path d="M5963 5219 c-43 -8 -60 -24 -68 -59 -8 -38 10 -64 62 -91 24 -12 43
-28 43 -35 0 -22 -47 -28 -75 -10 -23 15 -25 15 -40 -6 -8 -12 -15 -26 -15
-29 0 -10 88 -39 103 -34 7 2 24 6 39 9 16 4 33 18 41 34 25 48 9 80 -54 113
-44 22 -55 37 -40 52 7 7 20 7 45 0 35 -11 46 -4 46 31 0 18 -51 33 -87 25z"/>
<path d="M7130 5222 c-32 -10 -60 -46 -60 -77 0 -34 16 -53 68 -79 59 -30 29
-72 -32 -43 -30 14 -33 14 -44 -4 -18 -28 -15 -38 14 -49 74 -29 147 -8 160
45 10 39 -8 68 -60 96 -46 24 -58 45 -33 55 8 3 25 1 38 -5 21 -7 28 -5 38 11
8 13 9 24 3 30 -13 13 -73 26 -92 20z"/>
<path d="M7823 5214 c-94 -39 -107 -175 -21 -237 79 -58 200 8 200 108 0 42
-26 96 -54 114 -36 23 -90 29 -125 15z m105 -88 c8 -16 11 -39 7 -57 -14 -63
-95 -74 -120 -16 -13 31 -12 44 7 84 20 41 84 34 106 -11z"/>
<path d="M9263 5215 c-34 -15 -46 -36 -37 -71 12 -46 78 -60 114 -24 52 52 -7
124 -77 95z m51 -42 c10 -26 -23 -48 -43 -29 -12 12 -12 18 -1 30 17 21 36 20
44 -1z"/>
<path d="M1210 5090 l0 -130 51 0 c112 0 178 75 148 169 -21 64 -69 91 -160
91 l-39 0 0 -130z m125 47 c31 -44 9 -107 -42 -122 -22 -6 -23 -4 -23 68 0 40
3 76 6 79 10 11 44 -4 59 -25z"/>
<path d="M1511 5193 c-18 -39 -91 -222 -91 -228 0 -3 14 -5 30 -5 23 0 33 6
40 25 8 22 15 25 60 25 45 0 50 -2 56 -25 5 -20 12 -25 40 -25 l34 0 -21 53
c-12 28 -35 87 -52 130 -27 69 -33 77 -57 77 -20 0 -30 -7 -39 -27z m54 -104
c6 -23 3 -26 -18 -26 -23 0 -24 2 -16 31 5 17 9 33 9 35 0 14 20 -18 25 -40z"/>
<path d="M1670 5195 c0 -24 12 -30 48 -26 13 2 13 2 15 -119 l2 -85 30 0 29 0
0 101 -1 101 28 -2 c16 -1 29 3 30 9 0 6 2 19 4 29 3 15 -7 17 -91 17 -94 0
-94 0 -94 -25z"/>
<path d="M1875 5093 l0 -128 30 -3 31 -3 -1 128 0 128 -30 3 -30 3 0 -128z"/>
<path d="M1970 5090 l0 -130 30 0 29 0 3 77 3 78 49 -78 c45 -73 50 -78 79
-75 l31 3 -1 113 c-1 61 -2 119 -2 127 -1 10 -11 15 -31 15 -30 0 -30 -1 -29
-52 2 -110 3 -109 -52 -25 -44 67 -54 77 -79 77 l-30 0 0 -130z"/>
<path d="M2642 5193 c-6 -16 -29 -73 -51 -127 -23 -55 -41 -101 -41 -103 0 -2
14 -3 30 -3 23 0 33 6 42 25 10 21 18 25 58 25 40 0 48 -4 58 -25 9 -19 19
-25 43 -25 21 0 30 4 26 13 -96 244 -98 247 -127 247 -21 0 -31 -7 -38 -27z
m55 -98 c10 -32 10 -34 -11 -31 -11 3 -24 5 -28 5 -8 1 14 61 23 61 3 0 10
-16 16 -35z"/>
<path d="M2820 5090 l0 -130 30 0 29 0 3 76 3 76 49 -76 c45 -71 52 -77 80
-74 l30 3 0 125 1 125 -31 3 -31 3 0 -53 c-1 -111 1 -109 -54 -25 -44 67 -54
77 -80 77 l-29 0 0 -130z"/>
<path d="M3079 5163 c-1 -86 -1 -165 0 -187 1 -16 8 -18 67 -14 62 4 69 7 100
41 33 35 38 52 36 107 -3 59 -75 110 -154 110 l-48 0 -1 -57z m135 -45 c10
-41 7 -58 -19 -83 -43 -44 -55 -34 -55 48 0 41 3 76 6 80 12 11 61 -22 68 -45z"/>
<path d="M3398 5214 c-2 -5 -4 -63 -4 -129 l1 -120 31 -3 c31 -3 31 -3 29 42
-1 26 2 46 5 46 4 0 21 -20 39 -45 29 -40 36 -45 72 -45 l41 0 -46 52 -45 51
25 19 c32 25 34 86 3 114 -22 19 -143 34 -151 18z m110 -71 c4 -25 -35 -53
-48 -34 -5 9 -6 40 -1 59 1 2 11 2 24 0 14 -2 23 -11 25 -25z"/>
<path d="M3620 5090 l0 -130 75 0 c73 0 75 1 75 25 0 26 -12 30 -68 25 -20 -1
-23 2 -20 26 3 25 7 28 43 29 36 0 40 3 40 25 0 22 -4 25 -40 25 -36 0 -40 3
-40 25 0 22 4 25 40 25 36 1 40 3 43 28 l3 27 -75 0 -76 0 0 -130z"/>
<path d="M3803 5090 l0 -130 107 0 c107 0 108 0 114 25 6 23 11 25 56 25 45 0
52 -3 60 -25 7 -19 17 -25 40 -25 16 0 30 3 30 8 0 4 -22 61 -49 127 -47 114
-51 120 -80 123 -17 2 -31 -1 -31 -7 0 -6 -18 -54 -41 -108 -46 -111 -62 -146
-55 -121 7 23 -10 32 -54 30 l-36 -3 -1 88 c-1 49 -2 96 -2 106 -1 12 -9 17
-29 17 l-28 0 -1 -130z m299 -4 c2 -13 -4 -20 -20 -22 -20 -4 -22 -1 -16 24
12 50 26 49 36 -2z"/>
<path d="M4210 5195 c0 -24 6 -28 43 -28 15 0 17 -11 17 -103 l0 -104 30 0 30
0 0 104 c0 99 1 105 20 101 24 -5 51 20 44 40 -5 12 -26 15 -95 15 -88 0 -89
0 -89 -25z"/>
<path d="M4410 5090 l0 -130 30 0 30 0 0 130 0 130 -30 0 -30 0 0 -130z"/>
<path d="M4783 5090 l0 -130 27 0 c34 0 37 8 34 90 l-3 64 24 -29 c13 -17 31
-43 40 -60 26 -51 41 -65 72 -65 l30 0 -1 128 -1 127 -30 0 -30 0 1 -74 2 -74
-19 24 c-10 13 -33 48 -51 76 -28 45 -38 53 -64 53 l-30 0 -1 -130z"/>
<path d="M5256 5208 c-3 -7 -4 -66 -3 -130 l0 -118 29 0 c29 0 30 3 30 55 0
42 13 54 51 46 31 -7 32 -9 32 -54 -1 -46 0 -47 30 -47 l30 0 0 128 0 127 -30
0 c-29 0 -30 -1 -30 -50 l0 -49 -37 -1 c-21 -1 -39 3 -40 9 -3 22 -6 52 -7 74
-1 17 -7 22 -26 22 -14 0 -27 -6 -29 -12z"/>
<path d="M5490 5090 l0 -130 30 0 30 0 0 130 0 130 -30 0 -30 0 0 -130z"/>
<path d="M5590 5091 l0 -131 30 0 c29 0 30 1 30 49 0 43 2 48 23 48 45 1 54 3
75 23 28 26 29 79 3 111 -16 19 -30 24 -90 27 l-71 4 0 -131z m114 57 c12 -20
3 -32 -31 -43 -21 -6 -23 -3 -23 30 0 32 3 36 21 33 12 -2 27 -11 33 -20z"/>
<path d="M6074 5193 c1 -24 5 -28 29 -26 15 1 28 -2 28 -7 1 -6 2 -52 3 -102
l1 -93 30 -3 31 -3 -1 96 c-1 73 2 99 13 108 8 7 17 11 19 10 15 -12 34 0 31
20 -3 21 -8 22 -94 25 l-91 3 1 -28z"/>
<path d="M6329 5203 c-37 -23 -59 -64 -59 -113 0 -56 23 -96 68 -118 86 -44
182 10 187 106 3 47 -11 81 -49 115 -24 21 -40 27 -76 27 -25 0 -57 -8 -71
-17z m94 -44 c30 -16 37 -28 37 -69 -1 -43 -18 -67 -52 -74 -76 -13 -107 115
-35 144 29 11 25 12 50 -1z"/>
<path d="M6553 5091 l-1 -131 31 0 c32 0 32 0 31 51 -1 27 2 46 6 42 3 -4 21
-27 39 -50 29 -39 37 -43 74 -43 23 0 37 4 32 8 -6 4 -27 27 -47 52 l-36 45
24 18 c18 13 24 27 24 56 0 56 -26 75 -109 79 l-67 4 -1 -131z m111 56 c9 -14
7 -21 -7 -32 -26 -19 -42 -10 -45 26 -2 26 1 30 19 27 12 -2 27 -11 33 -21z"/>
<path d="M6780 5090 l0 -130 30 0 30 0 -1 130 0 130 -30 0 -29 0 0 -130z"/>
<path d="M6873 5093 l2 -128 71 -3 c65 -3 72 -1 77 18 7 25 -8 34 -53 32 -32
-2 -35 0 -36 25 -1 27 0 28 43 26 42 -2 44 -1 41 25 -3 24 -7 27 -40 27 -45 1
-52 7 -43 35 6 17 13 20 45 17 35 -4 38 -2 42 25 l5 28 -78 0 -77 0 1 -127z"/>
<path d="M7359 5218 c-1 -2 -3 -60 -4 -130 l-2 -128 28 0 c30 0 31 2 31 63 0
36 1 37 36 38 21 1 39 1 42 1 3 0 7 10 8 24 2 25 1 26 -50 28 -28 1 -33 5 -34
27 -1 25 2 26 43 24 23 -1 44 2 44 7 7 42 6 43 -68 46 -40 2 -74 2 -74 0z"/>
<path d="M7530 5091 l0 -131 29 0 c28 0 30 2 33 48 l3 47 35 -47 c31 -42 39
-47 73 -48 l38 0 -19 28 c-11 15 -30 38 -43 51 l-23 24 23 18 c32 26 38 78 13
109 -17 21 -30 25 -91 28 l-71 4 0 -131z m107 68 c11 -11 6 -48 -6 -50 -3 0
-14 -2 -23 -4 -14 -3 -18 4 -18 31 0 26 4 34 18 34 10 0 23 -5 29 -11z"/>
<path d="M8039 5213 c0 -4 -2 -15 -3 -23 -2 -8 -7 -55 -11 -104 -4 -50 -9 -98
-10 -109 -3 -15 1 -18 27 -15 33 3 35 7 39 86 2 23 6 42 9 42 3 0 15 -28 27
-62 15 -47 26 -64 41 -66 17 -3 24 8 43 67 13 39 25 68 28 66 4 -5 7 -35 10
-107 1 -24 5 -28 32 -28 l30 0 -7 93 c-4 50 -8 99 -10 107 -1 8 -3 25 -3 38
-1 18 -7 22 -34 22 -31 0 -34 -3 -51 -52 -35 -100 -36 -100 -66 -22 -25 63
-30 69 -59 72 -17 2 -31 0 -32 -5z"/>
<path d="M8394 5195 c0 -23 12 -31 40 -26 18 4 22 -20 21 -114 l-1 -95 31 0
31 0 -1 96 c0 71 3 98 14 107 8 7 16 11 18 10 15 -12 34 0 31 20 -3 21 -8 22
-93 25 l-91 3 0 -26z"/>
<path d="M8599 5180 c-1 -22 -1 -51 -1 -65 0 -14 0 -54 1 -90 l1 -65 30 0 c29
0 30 1 30 49 0 47 1 49 33 54 17 2 35 3 40 0 4 -2 7 -26 7 -54 0 -48 1 -49 30
-49 l30 0 0 130 0 130 -30 0 c-30 0 -30 -1 -30 -52 l0 -53 -40 0 c-22 -1 -40
4 -41 10 0 5 -1 29 -1 53 0 40 -1 42 -29 42 -27 0 -29 -3 -30 -40z"/>
<path d="M8838 5208 c-2 -7 -4 -65 -4 -128 l1 -115 74 0 c63 0 74 3 77 17 3
22 -11 31 -50 32 -32 1 -36 4 -36 34 0 14 8 17 41 15 38 -2 40 -1 37 25 -3 24
-7 27 -42 27 -34 0 -40 3 -41 23 -1 12 3 23 9 24 6 0 16 2 21 3 6 2 22 3 36 4
21 1 26 6 25 24 -1 20 -6 22 -72 25 -52 2 -73 -1 -76 -10z"/>
<path d="M9131 5195 c-21 -15 -36 -35 -38 -50 -4 -26 14 -34 33 -15 6 6 9 -21
9 -78 l0 -87 31 -3 30 -3 0 130 c0 147 -3 150 -65 106z"/>
<path d="M9352 5094 c-70 -119 -81 -151 -45 -128 13 8 153 236 153 250 0 2 -8
4 -17 4 -12 0 -42 -41 -91 -126z"/>
<path d="M9407 5069 c-25 -15 -36 -50 -25 -75 21 -45 89 -51 120 -12 41 55
-33 123 -95 87z m61 -55 c-2 -11 -12 -19 -23 -19 -27 0 -34 42 -8 47 24 6 36
-5 31 -28z"/>
</g>
</svg>
